<?xml version="1.0" encoding="UTF-8" standalone="no"?>
<!--
  Copyright 2023 21S1298001
  CC BY-SA 4.0
  This work is licensed under a Creative Commons Attribution-ShareAlike 4.0 International License.
  https://creativecommons.org/licenses/by-sa/4.0/
-->

<svg
  width="512"
  height="512"
  viewBox="0 0 512 512"
  version="1.1"
  id="svg5"
  xmlns="http://www.w3.org/2000/svg"
  xmlns:svg="http://www.w3.org/2000/svg">
  <defs
    id="defs2" />
  <g
    id="layer1">
    <path
      id="path172"
      style="fill:#f4d7d7;stroke:#926d57;stroke-width:1;stroke-dasharray:none;stroke-opacity:1"
      d="m 244.63547,-177.40232 c -6.63732,5.95624 -12.93326,12.41273 -18.84744,19.32805 -35.9356,42.01918 -56.09262,98.961241 -56.03959,158.30767048 C 169.85926,123.8138 255.8219,223.90872 361.78732,223.84349 406.86965,223.56655 450.42977,204.7912 484.8308,170.8091 315.39395,267.59969 295.84932,-253.62242 537.59312,-87.07219 c 0.12726,0.08767 0.24179,0.173392 0.36875,0.261022 -9.054,-24.575242 -21.81143,-47.059082 -37.66725,-66.385172 -0.50037,-0.30483 -1.00454,-0.63329 -1.5026,-0.92255 -1.17693,-0.68352 -2.34814,-1.32277 -3.51206,-1.92107 -1.16391,-0.5983 -2.3199,-1.15423 -3.47062,-1.66971 -1.15072,-0.51548 -2.29599,-0.99021 -3.43334,-1.42526 -1.13734,-0.43506 -2.26812,-0.83069 -3.3919,-1.18772 -1.12378,-0.35704 -2.23905,-0.67567 -3.34909,-0.95708 -1.11004,-0.28141 -2.21431,-0.52516 -3.31042,-0.73335 -1.09611,-0.20818 -2.18422,-0.38054 -3.26622,-0.5179 -1.08201,-0.13736 -2.15847,-0.24043 -3.22618,-0.30936 -1.06771,-0.0689 -2.12736,-0.10344 -3.1806,-0.10634 -1.05323,-0.003 -2.10059,0.0263 -3.13917,0.087 -1.03857,0.0607 -2.06847,0.15288 -3.09221,0.27483 -1.02373,0.12195 -2.0393,0.27359 -3.04801,0.45437 -1.00872,0.18078 -2.0117,0.38979 -3.00521,0.627 -0.9935,0.23722 -1.97875,0.50287 -2.95686,0.79412 -0.97812,0.29125 -1.94737,0.60867 -2.90991,0.95155 -0.96255,0.34289 -1.91893,0.71136 -2.86572,1.10348 -0.94679,0.39211 -1.88514,0.80815 -2.816,1.2471 -0.93085,0.43895 -1.85293,0.90045 -2.76766,1.38383 -0.91473,0.48339 -1.82227,0.98823 -2.7207,1.51365 -0.89843,0.52543 -1.78766,1.07151 -2.66961,1.63657 -0.88194,0.56506 -1.75599,1.14889 -2.62126,1.75119 -0.86527,0.6023 -1.72175,1.22316 -2.57017,1.8603 -0.84842,0.63714 -1.68907,1.29015 -2.52045,1.95974 -0.83138,0.66958 -1.65518,1.3554 -2.46935,2.05503 -0.81416,0.69962 -1.61872,1.41477 -2.41549,2.14203 -0.79676,0.72727 -1.58382,1.46687 -2.363,2.21938 -0.77918,0.75251 -1.5505,1.51722 -2.31191,2.29257 -1.52283,1.55071 -3.01019,3.14528 -4.46085,4.77297 -1.45066,1.6277 -2.86423,3.28774 -4.24126,4.97323 -1.37703,1.68548 -2.71835,3.39553 -4.02029,5.11962 -1.30194,1.72408 -2.56426,3.46313 -3.78965,5.20662 -1.22539,1.7435 -2.41302,3.49054 -3.56039,5.23425 -1.14737,1.74371 -2.25496,3.48465 -3.32285,5.20939 -1.06789,1.72473 -2.0956,3.43443 -3.08255,5.121 -0.98694,1.68656 -1.93355,3.349546 -2.83809,4.978748 -0.90454,1.629201 -1.76607,3.224467 -2.58674,4.777114 -0.82067,1.552647 -1.60005,3.063335 -2.33539,4.520235 -1.47067,2.9138 -2.7699,5.615251 -3.89046,8.03091 -1.12056,2.415659 -2.06278,4.543359 -2.82153,6.307337 -0.75874,1.763979 -1.35642,3.155961 -1.71804,4.123869 l -2.59641,6.949534 c -0.36162,0.967907 3.55571,-9.309424 4.31445,-11.073403 0.75875,-1.763978 1.70097,-3.891678 2.82153,-6.307337 1.12056,-2.415659 2.41979,-5.11711 3.89046,-8.03091 0.73534,-1.4569 1.51472,-2.967588 2.33539,-4.520235 0.82067,-1.552647 1.6822,-3.147913 2.58674,-4.777114 0.90454,-1.629202 1.85115,-3.292188 2.83809,-4.978748 0.98695,-1.68657 2.01466,-3.39627 3.08255,-5.121 1.06789,-1.72474 2.17548,-3.46568 3.32285,-5.20939 1.14737,-1.74371 2.335,-3.49075 3.56039,-5.23425 1.22539,-1.74349 2.48771,-3.48254 3.78965,-5.20662 1.30194,-1.72409 2.64326,-3.43414 4.02029,-5.11962 1.37703,-1.68549 2.7906,-3.34553 4.24126,-4.97323 1.45066,-1.62769 2.93802,-3.22226 4.46085,-4.77297 0.76141,-0.77535 1.53273,-1.54006 2.31191,-2.29257 0.77918,-0.75251 1.56624,-1.49211 2.363,-2.21938 0.79677,-0.72726 1.60133,-1.44241 2.41549,-2.14203 0.81417,-0.69963 1.63797,-1.38545 2.46935,-2.05503 0.83138,-0.66959 1.67203,-1.3226 2.52045,-1.95974 0.84842,-0.63714 1.7049,-1.258 2.57017,-1.8603 0.86527,-0.6023 1.73932,-1.18613 2.62126,-1.75119 0.88195,-0.56506 1.77118,-1.11114 2.66961,-1.63657 0.89843,-0.52542 1.80597,-1.03026 2.7207,-1.51365 0.91473,-0.48338 1.83681,-0.94488 2.76766,-1.38383 0.93086,-0.43895 1.86921,-0.85499 2.816,-1.2471 0.94679,-0.39212 1.90317,-0.76059 2.86572,-1.10348 0.96254,-0.34288 1.93179,-0.6603 2.90991,-0.95155 0.97811,-0.29125 1.96336,-0.5569 2.95686,-0.79412 0.99351,-0.23721 1.99649,-0.44622 3.00521,-0.627 1.00871,-0.18078 2.02428,-0.33242 3.04801,-0.45437 1.02374,-0.12195 2.05364,-0.21411 3.09221,-0.27483 1.03858,-0.0607 2.08594,-0.0899 3.13917,-0.087 1.05324,0.003 2.11289,0.0374 3.1806,0.10634 1.06771,0.0689 2.14417,0.172 3.22618,0.30936 1.082,0.13736 2.17011,0.30972 3.26622,0.5179 1.09611,0.20819 2.20038,0.45194 3.31042,0.73335 1.11004,0.28141 2.22531,0.60004 3.34909,0.95708 1.12378,0.35703 2.25456,0.75266 3.3919,1.18772 1.13735,0.43505 2.28262,0.90978 3.43334,1.42526 1.15072,0.51548 2.30671,1.07141 3.47062,1.66971 1.16392,0.5983 2.33513,1.23755 3.51206,1.92107 0.49806,0.28926 1.00223,0.61772 1.5026,0.92255 -36.03459,-44.77277 -86.25819,-70.3155 -138.91057,-70.64715 -42.23768,0.0775 -83.274,16.40123 -116.74858,46.44117 z"
      transform="rotate(45)" />
    <path
      style="display:inline;fill:#ff8080;stroke:none;stroke-width:0.498539;stroke-dasharray:none;stroke-opacity:1"
      d="m 441.21766,313.61458 c -0.35278,-1.9972 -1.40775,-7.13291 -2.60146,-11.86438 -11.15219,-44.20341 -31.88822,-74.13754 -60.27452,-85.26412 -13.63271,-5.34361 -30.73955,-6.54305 -46.65546,-3.52385 -2.23155,0.42332 -12.24532,3.04212 -12.3785,2.90894 -0.42942,-0.42942 23.42791,-8.53425 32.67365,-10.85105 17.50224,-4.38571 33.83314,-6.43708 48.29112,-5.99427 13.64549,0.41793 21.86643,2.53553 31.45575,7.21577 6.43887,3.14261 10.87186,6.34435 15.67974,11.42426 5.79096,6.11861 11.40253,16.45488 12.85012,22.3842 l 1.32759,5.43784 -0.546,4.81624 c -1.40811,12.42099 -4.88243,28.35174 -9.38992,42.21963 -2.7522,8.46753 -8.72863,23.9054 -9.58062,24.7574 -0.26333,0.26333 -0.47343,-1.5263 -0.85149,-3.66661 z"
      id="path1754" />
  </g>
  <g
    id="layer2">
    <path
      style="fill:#ff5555;stroke:none;stroke-width:1;stroke-dasharray:none;stroke-opacity:1"
      id="path2184"
      d="m 447.5,128 a 64,64 0 0 1 -63.96649,63.99999 64,64 0 0 1 -64.03347,-63.93298 64,64 0 0 1 63.89944,-64.066931 64,64 0 0 1 64.10038,63.865901" />
    <path
      style="fill:#ff5555;stroke:none;stroke-width:1;stroke-dasharray:none;stroke-opacity:1"
      id="path2186"
      d="m 447.5,128 a 64,64 0 0 1 -63.96649,63.99999 64,64 0 0 1 -64.03347,-63.93298 64,64 0 0 1 63.89944,-64.066931 64,64 0 0 1 64.10038,63.865901" />
  </g>
</svg>
